<svg xmlns="http://www.w3.org/2000/svg" width="24" height="24" viewBox="0 0 24 24">
    <g fill="none" fill-rule="evenodd" stroke="#333">
        <path d="M15.5 12a3.5 3.5 0 1 1-7 0 3.5 3.5 0 0 1 7 0z"/>
        <path d="M21.368 8.697l-1.73-2.9-3.032.786-.191-.14a7.26 7.26 0 0 0-1.621-.892l-.232-.092-.819-2.959h-3.486l-.83 2.996-.225.094a7.34 7.34 0 0 0-1.542.87l-.192.142-3.107-.806-1.729 2.901 2.266 2.197-.033.25a6.758 6.758 0 0 0-.006 1.723l.03.247L2.632 15.3l1.73 2.902 3.048-.792.193.145a7.32 7.32 0 0 0 1.618.923l.226.093.81 2.928h3.486l.8-2.892.233-.091a7.263 7.263 0 0 0 1.694-.942l.192-.143 2.977.77 1.729-2.901-2.174-2.106.034-.25a6.84 6.84 0 0 0 .063-.915c0-.32-.023-.64-.07-.965l-.035-.252 2.182-2.116z"/>
    </g>
</svg>
