<svg xmlns="http://www.w3.org/2000/svg" width="24" height="24" viewBox="0 0 24 24">
    <g fill="#000" fill-rule="evenodd">
        <path fill-rule="nonzero"
              d="M20.907 7.688a.477.477 0 0 0 0-.674l-2.92-2.92a.477.477 0 0 0-.675 0L3.953 17.451v3.595h3.595l13.359-13.36zm.674.674L8.222 21.721a.953.953 0 0 1-.674.279H3.953A.953.953 0 0 1 3 21.047v-3.595c0-.253.1-.496.28-.674l13.358-13.36a1.43 1.43 0 0 1 2.023 0l2.92 2.921a1.43 1.43 0 0 1 0 2.023z"/>
        <rect width="7" height="1" x="4" y="17" rx=".5" transform="rotate(45 7.5 17.5)"/>
    </g>
</svg>
